<svg width="16" height="16" xml:space="preserve" xmlns="http://www.w3.org/2000/svg"><defs><linearGradient id="b" x2="1" gradientTransform="matrix(0 458.91 458.91 0 1298.2 801.96)" gradientUnits="userSpaceOnUse"><stop stop-color="#228b22" offset="0"/><stop stop-color="#228b22" offset=".005"/><stop stop-color="#1700d9" offset=".995"/><stop stop-color="#1700d9" offset="1"/></linearGradient><linearGradient id="d" x2="1" gradientTransform="matrix(0 458.92 458.92 0 979.18 801.96)" gradientUnits="userSpaceOnUse"><stop stop-color="#228b22" offset="0"/><stop stop-color="#228b22" offset=".005"/><stop stop-color="#1700d9" offset=".995"/><stop stop-color="#1700d9" offset="1"/></linearGradient><clipPath id="a"><path d="M1283.1 933.12c-7.393 0-13.389-5.995-13.389-13.39 0-7.393 5.996-13.388 13.389-13.388h30.203c7.395 0 13.39 5.995 13.39 13.388 0 7.395-5.995 13.39-13.39 13.39z"/></clipPath><clipPath id="c"><path d="M882.23 1200.8c-7.19 0-13.367-5.513-13.722-12.692-.346-6.87 4.508-12.675 10.97-13.847-.133-.079-.257-.159-.399-.23h26.635c7.384 0 13.384-6 13.384-13.393s-6-13.385-13.384-13.385h-150.53c-7.199 0-13.403-5.529-13.758-12.727-.381-7.686 5.752-14.058 13.367-14.058h63.86c7.206 0 13.409-5.53 13.747-12.728.365-7.695-5.76-14.05-13.367-14.05h-87.68c-7.217 0-13.411-5.547-13.749-12.745-.355-7.687 5.761-14.024 13.367-14.024h63.85c7.216 0 13.42-5.547 13.758-12.754.363-7.686-5.761-14.032-13.367-14.032H782.44c-.018-.054-.027-.106-.035-.151h-7.829c-7.197 0-13.375-5.538-13.73-12.727-.337-6.878 4.526-12.665 10.997-13.827h23.369c.798 0 1.597-.098 2.37-.233 6.256-1.117 11.014-6.575 11.014-13.17 0-6.577-4.758-12.035-11.014-13.154a12.405 12.405 0 0 0-2.37-.23h-47.191c-6.133-1.101-10.819-6.373-11.006-12.772a14.29 14.29 0 0 1 .009-1.074c.356-7.18 6.532-12.709 13.722-12.709h31.659a.69.69 0 0 1 .035-.152h12.381c7.216 0 13.42-5.546 13.758-12.753.363-7.687-5.761-14.033-13.367-14.033h-108.48c-7.625 0-13.749-6.372-13.367-14.058.355-7.198 6.559-12.719 13.757-12.719h131.53c7.206 0 13.409-5.539 13.747-12.737.365-7.695-5.76-14.05-13.367-14.05h-63.867c-7.207 0-13.411-5.538-13.74-12.745-.354-7.686 5.76-14.023 13.367-14.023h150.92c7.597 0 13.731-6.355 13.375-14.041-.346-7.199-6.541-12.736-13.747-12.736h-26.263c.142-.08.266-.151.399-.231-6.47-1.171-11.316-6.976-10.97-13.854.364-7.181 6.54-12.701 13.731-12.701h193.88c7.19 0 13.367 5.512 13.739 12.691.356 6.878-4.508 12.701-10.987 13.864.141.08.276.151.399.231h-26.244c-7.207 0-13.412 5.537-13.749 12.736-.364 7.686 5.769 14.041 13.375 14.041h109.71c7.207 0 13.411 5.547 13.74 12.745.354 7.686-5.76 14.023-13.366 14.023h-23.015c-7.215 0-13.42 5.548-13.757 12.754-.364 7.687 5.761 14.033 13.366 14.033h87.664c7.207 0 13.411 5.521 13.765 12.719.373 7.686-5.751 14.058-13.365 14.058h-58.925a198.638 198.638 0 0 1 9.763 40.721c.55 4.145.967 8.325 1.252 12.55v.222l.168 18.008c.035 4.828-3.861 8.76-8.689 8.76h-166.31c-11.059 0-20.378-8.743-20.529-19.792a20.06 20.06 0 0 1 5.876-14.485 20.001 20.001 0 0 1 9.266-5.263h121.76c-1.154-5.033-2.627-10.97-3.445-13.783-14.955-51.762-58.222-91.622-111.88-101.67-.142-.017-.284-.053-.417-.071-1.659-.31-3.319-.586-4.988-.833-.914-.133-1.837-.259-2.761-.383-.07-.017-.124-.017-.195-.026-.922-.115-1.846-.213-2.777-.319-.223-.027-.435-.053-.648-.063a112.52 112.52 0 0 0-2.565-.239c-.782-.071-1.581-.125-2.379-.186a186.092 186.092 0 0 0-3.905-.214c-.941-.036-1.882-.054-2.823-.08-1.011-.017-2.042-.036-3.061-.036-1.021 0-2.042.019-3.063.036-.959.026-1.908.044-2.849.08a187.38 187.38 0 0 0-3.879.214c-.798.061-1.588.115-2.387.186-.844.07-1.695.15-2.547.239-.231.01-.444.036-.648.063-.932.106-1.864.204-2.779.319a.831.831 0 0 0-.203.026c-62.253 7.917-112.12 55.57-123.32 116.74a144.504 144.504 0 0 0-2.22 19.544 137.059 137.059 0 0 0 0 13.242c3.178 70.338 56.795 127.53 125.54 136.28.07.01.133.017.203.017.915.115 1.847.221 2.779.319.204.036.417.062.648.071.852.089 1.703.169 2.547.241.799.061 1.589.124 2.387.177 1.297.088 2.584.159 3.879.221.941.027 1.89.054 2.849.071 1.021.026 2.042.036 3.063.036 4.091 0 8.156-.169 12.159-.505.657-.063 1.314-.116 1.97-.187 2.024-.186 4.029-.426 6.018-.701 1.251-.178 2.503-.373 3.754-.586.612-.107 1.225-.204 1.837-.319.595-.115 1.19-.232 1.793-.339.755-.15 1.518-.301 2.272-.46.276-.054.551-.126.816-.178.977-.213 1.953-.434 2.921-.666 1.882-.443 3.754-.949 5.618-1.464.098-.027.204-.045.301-.08a161.265 161.265 0 0 0 8.308-2.644c34.526-12.124 63.042-37.03 79.853-69.035h164.45c7.207 0 13.411 5.548 13.739 12.746.355 7.686-5.76 14.023-13.366 14.023h-131.91c-7.215 0-13.42 5.547-13.757 12.754-.364 7.687 5.761 14.024 13.366 14.024h64.241c7.615 0 13.74 6.372 13.367 14.058-.355 7.198-6.559 12.727-13.766 12.727h-150.52c-7.384 0-13.393 5.992-13.393 13.385s6.009 13.393 13.393 13.393h26.61c-.125.071-.25.151-.391.221 6.461 1.172 11.325 6.959 10.987 13.829-.345 7.189-6.523 12.719-13.721 12.719z"/></clipPath></defs><g clip-path="url(#a)" transform="matrix(.02292 0 0 -.02292 -14.397 30.936)"><path d="M1283.1 933.12c-7.393 0-13.389-5.995-13.389-13.39 0-7.393 5.996-13.388 13.389-13.388h30.203c7.395 0 13.39 5.995 13.39 13.388 0 7.395-5.995 13.39-13.39 13.39z" fill="url(#b)"/></g><g clip-path="url(#c)" transform="matrix(.02292 0 0 -.02292 -14.397 30.936)"><path d="M882.23 1200.8c-7.19 0-13.367-5.513-13.722-12.692-.346-6.87 4.508-12.675 10.97-13.847-.133-.079-.257-.159-.399-.23h26.635c7.384 0 13.384-6 13.384-13.393s-6-13.385-13.384-13.385h-150.53c-7.199 0-13.403-5.529-13.758-12.727-.381-7.686 5.752-14.058 13.367-14.058h63.86c7.206 0 13.409-5.53 13.747-12.728.365-7.695-5.76-14.05-13.367-14.05h-87.68c-7.217 0-13.411-5.547-13.749-12.745-.355-7.687 5.761-14.024 13.367-14.024h63.85c7.216 0 13.42-5.547 13.758-12.754.363-7.686-5.761-14.032-13.367-14.032H782.44c-.018-.054-.027-.106-.035-.151h-7.829c-7.197 0-13.375-5.538-13.73-12.727-.337-6.878 4.526-12.665 10.997-13.827h23.369c.798 0 1.597-.098 2.37-.233 6.256-1.117 11.014-6.575 11.014-13.17 0-6.577-4.758-12.035-11.014-13.154a12.405 12.405 0 0 0-2.37-.23h-47.191c-6.133-1.101-10.819-6.373-11.006-12.772a14.29 14.29 0 0 1 .009-1.074c.356-7.18 6.532-12.709 13.722-12.709h31.659a.69.69 0 0 1 .035-.152h12.381c7.216 0 13.42-5.546 13.758-12.753.363-7.687-5.761-14.033-13.367-14.033h-108.48c-7.625 0-13.749-6.372-13.367-14.058.355-7.198 6.559-12.719 13.757-12.719h131.53c7.206 0 13.409-5.539 13.747-12.737.365-7.695-5.76-14.05-13.367-14.05h-63.867c-7.207 0-13.411-5.538-13.74-12.745-.354-7.686 5.76-14.023 13.367-14.023h150.92c7.597 0 13.731-6.355 13.375-14.041-.346-7.199-6.541-12.736-13.747-12.736h-26.263c.142-.08.266-.151.399-.231-6.47-1.171-11.316-6.976-10.97-13.854.364-7.181 6.54-12.701 13.731-12.701h193.88c7.19 0 13.367 5.512 13.739 12.691.356 6.878-4.508 12.701-10.987 13.864.141.08.276.151.399.231h-26.244c-7.207 0-13.412 5.537-13.749 12.736-.364 7.686 5.769 14.041 13.375 14.041h109.71c7.207 0 13.411 5.547 13.74 12.745.354 7.686-5.76 14.023-13.366 14.023h-23.015c-7.215 0-13.42 5.548-13.757 12.754-.364 7.687 5.761 14.033 13.366 14.033h87.664c7.207 0 13.411 5.521 13.765 12.719.373 7.686-5.751 14.058-13.365 14.058h-58.925a198.638 198.638 0 0 1 9.763 40.721c.55 4.145.967 8.325 1.252 12.55v.222l.168 18.008c.035 4.828-3.861 8.76-8.689 8.76h-166.31c-11.059 0-20.378-8.743-20.529-19.792a20.06 20.06 0 0 1 5.876-14.485 20.001 20.001 0 0 1 9.266-5.263h121.76c-1.154-5.033-2.627-10.97-3.445-13.783-14.955-51.762-58.222-91.622-111.88-101.67-.142-.017-.284-.053-.417-.071-1.659-.31-3.319-.586-4.988-.833-.914-.133-1.837-.259-2.761-.383-.07-.017-.124-.017-.195-.026-.922-.115-1.846-.213-2.777-.319-.223-.027-.435-.053-.648-.063a112.52 112.52 0 0 0-2.565-.239c-.782-.071-1.581-.125-2.379-.186a186.092 186.092 0 0 0-3.905-.214c-.941-.036-1.882-.054-2.823-.08-1.011-.017-2.042-.036-3.061-.036-1.021 0-2.042.019-3.063.036-.959.026-1.908.044-2.849.08a187.38 187.38 0 0 0-3.879.214c-.798.061-1.588.115-2.387.186-.844.07-1.695.15-2.547.239-.231.01-.444.036-.648.063-.932.106-1.864.204-2.779.319a.831.831 0 0 0-.203.026c-62.253 7.917-112.12 55.57-123.32 116.74a144.504 144.504 0 0 0-2.22 19.544 137.059 137.059 0 0 0 0 13.242c3.178 70.338 56.795 127.53 125.54 136.28.07.01.133.017.203.017.915.115 1.847.221 2.779.319.204.036.417.062.648.071.852.089 1.703.169 2.547.241.799.061 1.589.124 2.387.177 1.297.088 2.584.159 3.879.221.941.027 1.89.054 2.849.071 1.021.026 2.042.036 3.063.036 4.091 0 8.156-.169 12.159-.505.657-.063 1.314-.116 1.97-.187 2.024-.186 4.029-.426 6.018-.701 1.251-.178 2.503-.373 3.754-.586.612-.107 1.225-.204 1.837-.319.595-.115 1.19-.232 1.793-.339.755-.15 1.518-.301 2.272-.46.276-.054.551-.126.816-.178.977-.213 1.953-.434 2.921-.666 1.882-.443 3.754-.949 5.618-1.464.098-.027.204-.045.301-.08a161.265 161.265 0 0 0 8.308-2.644c34.526-12.124 63.042-37.03 79.853-69.035h164.45c7.207 0 13.411 5.548 13.739 12.746.355 7.686-5.76 14.023-13.366 14.023h-131.91c-7.215 0-13.42 5.547-13.757 12.754-.364 7.687 5.761 14.024 13.366 14.024h64.241c7.615 0 13.74 6.372 13.367 14.058-.355 7.198-6.559 12.727-13.766 12.727h-150.52c-7.384 0-13.393 5.992-13.393 13.385s6.009 13.393 13.393 13.393h26.61c-.125.071-.25.151-.391.221 6.461 1.172 11.325 6.959 10.987 13.829-.345 7.189-6.523 12.719-13.721 12.719z" fill="url(#d)"/></g></svg>