<svg width="600" height="89" xml:space="preserve" xmlns="http://www.w3.org/2000/svg"><style>.st4{fill:#228b22}</style><g transform="translate(-776.8 -1021.8) scale(.33894)"><linearGradient id="SVGID_7_" x1="2696.6" x2="2696.6" y1="3274.2" y2="2976.9" gradientUnits="userSpaceOnUse"><stop stop-color="#228B22" offset=".005"/><stop stop-color="#1700D9" offset=".995"/></linearGradient><path d="M2706.4 3189.2h-19.57c-4.79 0-8.67 3.88-8.67 8.67s3.88 8.67 8.67 8.67h19.57c4.79 0 8.67-3.88 8.67-8.67.01-4.79-3.88-8.67-8.67-8.67z" fill="url(#SVGID_7_)" style="fill:url(#SVGID_7_)"/><linearGradient id="SVGID_8_" x1="2490" x2="2490" y1="3274.2" y2="2976.9" gradientUnits="userSpaceOnUse"><stop stop-color="#228B22" offset=".005"/><stop stop-color="#1700D9" offset=".995"/></linearGradient><path d="M2650.8 3189.2h-38.17c2.99-8.43 5.14-17.26 6.33-26.38.36-2.69.63-5.39.81-8.13v-.14l.11-11.67c.02-3.13-2.5-5.68-5.63-5.68h-107.74c-7.16 0-13.2 5.66-13.3 12.82-.05 3.67 1.41 6.99 3.81 9.38 1.63 1.63 3.69 2.83 6 3.41h78.89c-.75 3.26-1.7 7.11-2.23 8.93-9.69 33.53-37.72 59.36-72.49 65.87-.09.01-.18.03-.27.05a90.618 90.618 0 0 1-5.02.79c-.05.01-.08.01-.13.02l-1.8.21c-.14.02-.28.03-.42.04-.55.06-1.1.11-1.66.16-.51.05-1.02.08-1.54.12-.84.06-1.68.1-2.53.14-.61.02-1.22.03-1.83.05-.66.01-1.32.02-1.98.02s-1.32-.01-1.98-.02c-.62-.02-1.24-.03-1.85-.05-.84-.04-1.67-.08-2.51-.14-.52-.04-1.03-.07-1.55-.12-.55-.05-1.1-.1-1.65-.16-.15-.01-.29-.02-.42-.04-.6-.07-1.21-.13-1.8-.21-.05 0-.09-.01-.13-.02-40.33-5.13-72.63-36-79.9-75.63-.76-4.13-1.24-8.36-1.44-12.66-.07-1.42-.1-2.85-.1-4.28 0-1.44.03-2.88.1-4.3 2.06-45.57 36.79-82.62 81.33-88.29.05-.01.09-.01.13-.01.59-.07 1.2-.14 1.8-.21.13-.02.27-.04.42-.05.55-.06 1.1-.11 1.65-.16.52-.04 1.03-.08 1.55-.11.84-.06 1.67-.1 2.51-.14.61-.02 1.22-.03 1.85-.05.66-.02 1.32-.02 1.98-.02 2.65 0 5.28.11 7.88.33.43.04.85.07 1.28.12 1.31.12 2.61.28 3.9.45.81.11 1.62.24 2.43.38.4.07.79.13 1.19.21.39.07.77.15 1.16.22l1.47.3c.18.03.36.08.53.11.63.14 1.27.28 1.89.43 1.22.29 2.43.62 3.64.95.06.02.13.03.2.05 1.82.52 3.61 1.1 5.38 1.71 22.37 7.85 40.84 23.99 51.73 44.72h106.54c4.67 0 8.69-3.59 8.9-8.26.23-4.98-3.73-9.09-8.66-9.09H2594c-4.67 0-8.69-3.59-8.91-8.26-.24-4.98 3.73-9.09 8.66-9.09h41.62c4.93 0 8.9-4.13 8.66-9.11-.23-4.66-4.25-8.25-8.92-8.25h-97.52c-4.78 0-8.68-3.88-8.68-8.67s3.89-8.68 8.68-8.68h17.24c-.08-.05-.16-.1-.25-.14 4.19-.76 7.34-4.51 7.12-8.96-.22-4.66-4.23-8.24-8.89-8.24h-125.62c-4.66 0-8.66 3.57-8.89 8.22-.22 4.45 2.92 8.21 7.11 8.97-.09.05-.17.1-.26.15h17.26c4.78 0 8.67 3.89 8.67 8.68s-3.89 8.67-8.67 8.67h-97.52c-4.66 0-8.68 3.58-8.91 8.25-.25 4.98 3.73 9.11 8.66 9.11h41.37c4.67 0 8.69 3.58 8.91 8.25.24 4.99-3.73 9.1-8.66 9.1h-56.8c-4.67 0-8.69 3.59-8.91 8.26-.23 4.98 3.73 9.09 8.66 9.09h41.37c4.67 0 8.69 3.59 8.91 8.26.24 4.98-3.73 9.09-8.66 9.09h-8.27c-.01.03-.02.07-.02.1h-5.07c-4.66 0-8.67 3.59-8.9 8.25-.22 4.46 2.93 8.21 7.12 8.96h15.14c.52 0 1.04.06 1.54.15 4.05.72 7.14 4.26 7.14 8.53 0 4.26-3.08 7.8-7.14 8.52-.5.1-1.02.15-1.54.15h-30.57c-3.97.71-7.01 4.13-7.13 8.27-.01.23-.01.46.01.7.23 4.65 4.23 8.23 8.89 8.23h20.51c.01.03.01.07.02.1h8.02c4.67 0 8.69 3.59 8.91 8.26.24 4.98-3.73 9.09-8.66 9.09h-70.28c-4.94 0-8.91 4.13-8.66 9.11.23 4.66 4.25 8.24 8.91 8.24h85.21c4.67 0 8.69 3.59 8.91 8.25.24 4.99-3.73 9.1-8.66 9.1h-41.38c-4.67 0-8.69 3.59-8.9 8.26-.23 4.98 3.73 9.09 8.66 9.09h97.77c4.92 0 8.9 4.12 8.67 9.1-.22 4.66-4.24 8.25-8.91 8.25h-17.01c.09.05.17.1.26.15a8.678 8.678 0 0 0-7.11 8.98c.24 4.65 4.24 8.23 8.9 8.23h125.6c4.66 0 8.66-3.57 8.9-8.22.23-4.46-2.92-8.23-7.12-8.98.09-.05.18-.1.26-.15h-17c-4.67 0-8.69-3.59-8.91-8.25-.24-4.98 3.74-9.1 8.67-9.1h71.08c4.67 0 8.69-3.59 8.9-8.26.23-4.98-3.73-9.09-8.66-9.09h-14.91c-4.67 0-8.69-3.59-8.91-8.26-.24-4.98 3.73-9.09 8.66-9.09h56.79c4.67 0 8.69-3.58 8.92-8.24.22-4.97-3.75-9.1-8.68-9.1z" fill="url(#SVGID_8_)" style="fill:url(#SVGID_8_)"/><g fill="#228b22"><path class="st4" d="M2763.4 3152.9c-6.63 0-12.75-1.24-18.38-3.73-5.62-2.49-10.51-5.89-14.65-10.2-4.14-4.32-7.37-9.44-9.68-15.37s-3.47-12.34-3.47-19.23c0-6.98 1.15-13.34 3.47-19.1 2.31-5.76 5.54-10.66 9.68-14.72 4.14-4.05 9.03-7.19 14.65-9.42 5.62-2.22 11.75-3.34 18.38-3.34h51.54v16.61h-51.54c-4.27 0-8.22.77-11.84 2.29-3.62 1.53-6.74 3.64-9.35 6.34-2.62 2.7-4.67 5.93-6.15 9.68s-2.22 7.89-2.22 12.43c0 4.45.74 8.59 2.22 12.43s3.53 7.13 6.15 9.88 5.73 4.91 9.35 6.47c3.62 1.57 7.56 2.35 11.84 2.35h40.68v-24.72h-42.91v-14h59.65v55.33h-57.42zM2974.1 3152.9l-24.07-26.42h-35.58v-14.65h39.63c6.02 0 10.55-1.64 13.6-4.91s4.58-8 4.58-14.19-1.59-10.79-4.77-13.8-7.65-4.51-13.41-4.51h-51.8v78.49h-16.48v-95.1h68.28c5.41 0 10.25.81 14.52 2.42 4.27 1.62 7.89 3.92 10.86 6.93 2.96 3.01 5.23 6.65 6.8 10.92s2.35 9.07 2.35 14.39c0 7.94-1.72 14.59-5.17 19.95s-8.26 9.22-14.45 11.58l28.65 28.91h-23.54zM3056 3152.9v-95.1h84.9v16.61h-68.41v61.87h68.54v16.61H3056zm28.65-41.34v-14h52.72v14zM3205 3152.9v-95.1h84.9v16.61h-68.41v61.87h68.54v16.61H3205zm28.64-41.34v-14h52.72v14zM3369.4 3083.3v69.59h-15.83v-86.33c0-3.05.76-5.47 2.29-7.26s3.6-2.68 6.21-2.68c1.22 0 2.4.26 3.53.78s2.31 1.4 3.53 2.62l67.1 66.58v-69.59h15.83v87.12c0 3.14-.76 5.58-2.29 7.33-1.53 1.74-3.51 2.62-5.95 2.62-2.7 0-5.23-1.18-7.59-3.53zM3548.4 3152.9v-78.49h-36.1v-16.61h88.82v16.61h-36.1v78.49zM3661.8 3152.9v-95.1h84.9v16.61h-68.41v61.87h68.54v16.61h-85.03zm28.64-41.34v-14h52.72v14zM3854.2 3152.9c-6.63 0-12.75-1.24-18.38-3.73-5.62-2.49-10.51-5.89-14.65-10.2-4.14-4.32-7.37-9.44-9.68-15.37s-3.47-12.34-3.47-19.23c0-6.98 1.15-13.34 3.47-19.1 2.31-5.76 5.54-10.66 9.68-14.72 4.14-4.05 9.03-7.19 14.65-9.42s11.75-3.34 18.38-3.34h51.54v16.61h-51.54c-4.27 0-8.22.77-11.84 2.29-3.62 1.53-6.74 3.64-9.35 6.34-2.62 2.7-4.67 5.93-6.15 9.68s-2.22 7.89-2.22 12.43c0 4.45.74 8.59 2.22 12.43s3.53 7.13 6.15 9.88 5.73 4.91 9.35 6.47c3.62 1.57 7.56 2.35 11.84 2.35h51.54v16.61h-51.54zM3968.9 3153.3v-95.49h16.61v95.49zm76.53 0v-41.33h-47.88v-14.78h47.88v-39.37h16.61v95.49h-16.61zM2850.5 3258.3l-15.62-17.15h-23.09v-9.51h25.72c3.9 0 6.85-1.06 8.83-3.18s2.97-5.19 2.97-9.21-1.03-7-3.1-8.96c-2.07-1.95-4.97-2.93-8.7-2.93h-33.62v50.94h-10.7v-61.72h44.32c3.51 0 6.65.52 9.42 1.57s5.12 2.55 7.05 4.5c1.92 1.95 3.39 4.32 4.41 7.09s1.53 5.89 1.53 9.34c0 5.15-1.12 9.47-3.35 12.95-2.24 3.48-5.36 5.99-9.38 7.51l18.59 18.76zM2924 3258.3v-61.72h55.1v10.78h-44.4v40.16h44.49v10.78zm18.59-26.83v-9.09h34.21v9.09zM3051.1 3213.2v45.17h-10.27v-56.03c0-1.98.49-3.55 1.49-4.71.99-1.16 2.33-1.74 4.03-1.74.79 0 1.56.17 2.29.51s1.5.9 2.29 1.7l43.55 43.21v-45.17h10.27v56.54c0 2.04-.5 3.62-1.49 4.75s-2.28 1.7-3.86 1.7c-1.75 0-3.39-.76-4.92-2.29zM3167.8 3258.3v-61.72h55.1v10.78h-44.4v40.16h44.49v10.78zm18.59-26.83v-9.09h34.21v9.09zM3333.4 3237.7l-9.59 18.08c-.62 1.13-1.42 1.98-2.38 2.55-.96.56-2.01.85-3.14.85-2.49 0-4.36-1.13-5.6-3.39l-31.92-59.17h12.9l24.96 47.46 9.34-16.81-16.05-30.65h12.99l23.86 47.46 25.13-47.46h12.05l-31.92 59.17c-.62 1.13-1.43 1.98-2.42 2.55-.99.56-2.05.85-3.18.85s-2.18-.28-3.14-.85c-.96-.56-1.75-1.41-2.38-2.55zM3490.4 3258.3l-9.25-15.54h-29.2l5.09-8.74h18.93l-13.75-23.09-28.02 47.37h-12.31l35.49-59.09c.62-1.07 1.36-1.92 2.21-2.55.85-.62 1.87-.93 3.06-.93s2.19.31 3.01.93 1.54 1.47 2.16 2.55l35.57 59.09zM3562.5 3258.3v-61.72h45.17c3 0 5.73.34 8.19 1.02s4.57 1.68 6.32 3.01 3.11 3 4.08 5.01 1.44 4.32 1.44 6.92c0 1.98-.23 3.71-.68 5.18s-1.08 2.73-1.87 3.78-1.71 1.93-2.76 2.63c-1.05.71-2.14 1.23-3.27 1.57 2.83.91 5.15 2.55 6.96 4.92 1.81 2.38 2.72 5.38 2.72 9 0 2.83-.47 5.39-1.4 7.68s-2.26 4.26-3.99 5.9-3.82 2.9-6.28 3.78-5.19 1.32-8.19 1.32zm18.6-26.83v-9.09h26.66c3.06 0 5.32-.56 6.79-1.7 1.47-1.13 2.21-3.06 2.21-5.77 0-1.64-.31-2.96-.93-3.95s-1.52-1.75-2.67-2.29c-1.16-.54-2.55-.89-4.16-1.06s-3.41-.26-5.39-.26h-30.31v40.24h31.24c1.92 0 3.71-.14 5.35-.43 1.64-.28 3.06-.75 4.24-1.4 1.19-.65 2.11-1.49 2.76-2.5.65-1.02.98-2.29.98-3.82 0-2.55-.79-4.51-2.38-5.9s-3.9-2.08-6.96-2.08h-27.43zM3690.9 3258.3v-61.72h10.78v50.94h41.51v10.78zM3803.6 3258.3v-61.72h55.1v10.78h-44.4v40.16h44.49v10.78zm18.59-26.83v-9.09h34.21v9.09zM3920.6 3258.3v-10.78h46.27c2.89 0 5.11-.74 6.66-2.21 1.56-1.47 2.33-3.42 2.33-5.86 0-2.66-.78-4.65-2.33-5.98-1.56-1.33-3.78-2-6.66-2h-28.36c-2.89 0-5.5-.44-7.85-1.32s-4.33-2.09-5.94-3.65-2.86-3.41-3.74-5.56-1.32-4.5-1.32-7.05c0-2.49.41-4.8 1.23-6.92s2.04-3.95 3.65-5.48 3.61-2.73 5.99-3.61 5.09-1.32 8.15-1.32H3983v10.78h-44.32c-2.49 0-4.42.67-5.77 2-1.36 1.33-2.04 3.18-2.04 5.56s.69 4.22 2.08 5.52 3.27 1.95 5.65 1.95h28.27c6.28 0 11.05 1.47 14.31 4.42 3.25 2.94 4.88 7.42 4.88 13.41 0 2.6-.4 5.01-1.19 7.22s-1.98 4.12-3.57 5.73-3.58 2.87-5.98 3.78c-2.41.91-5.22 1.36-8.45 1.36h-46.27z"/></g><g fill="#228b22"><path class="st4" d="M4011.9 3222.4h50.13v10.55h-50.13zM2717.2 3222.4h50.13v10.55h-50.13z"/></g></g></svg>